<svg xmlns="http://www.w3.org/2000/svg" fill="none" viewBox="0 0 899 1022" stroke="#c93d94" stroke-linejoin="round" stroke-width=".767" xmlns:v="https://vecta.io/nano"><path d="M817.22 580.56L571.97 720.27V440.85l245.25 139.71z"/><path d="M572.15 440.99L326.9 580.7V301.28l245.25 139.71z"/><path d="M572.14 720.39L326.89 860.1V580.68l245.25 139.71zm245.08-418.45L571.97 441.65V162.23l245.25 139.71z"/><path d="M326.73 580.56l245.26-139.71v279.42L326.73 580.56zm245.41-419.24L326.89 301.03V21.61l245.25 139.71zM327.01 301.16L81.76 440.87V161.45l245.25 139.71z"/><path d="M81.635 161.32l245.25-139.71v279.42L81.635 161.32zm0 279.67l245.25-139.71V580.7L81.635 440.99zM326.77 301.16l245.26-139.71v279.42L326.77 301.16zm-.04 559.06l245.26-139.71v279.42L326.73 860.22zm245.13-139.83l245.25-139.71V860.1L571.86 720.39z"/><path d="M817.24 860.22L571.99 999.93V720.51l245.25 139.71z"/></svg>
